<svg xmlns="http://www.w3.org/2000/svg" viewBox="0 0 64 64"><title>Discounted gem</title><defs><mask id="hole"><rect width="64" height="64" fill="white"/><circle cx="39" cy="24" r="4" fill="black"/></mask></defs><g mask="url(#hole)"><path d="M15 12h34l12 18-29 29L3 30z" fill="#0000ff"/><path d="m15 12 7 18H3zm34 0-7 18h19z" fill="#0000c8"/><path d="m15 12 17 4 17-4-7 18H22z" fill="#6f7fff"/><path d="m3 30 29 29-10-29zm39 0L32 59l29-29z" fill="#00009c"/><path d="m22 30 10 29 10-29z" fill="#0000ff"/></g><path d="m53 3 2 5 5 2-5 2-2 5-2-5-5-2 5-2z" fill="#ffcf6b"/></svg>